<svg width="66" height="78" viewBox="0 0 66 78" fill="none" xmlns="http://www.w3.org/2000/svg">
<path d="M54.554 41.0828C54.5194 34.7129 57.397 29.9052 63.2217 26.3645C59.9626 21.6956 55.0394 19.1268 48.5387 18.6235C42.3847 18.1375 35.6586 22.2163 33.197 22.2163C30.5967 22.2163 24.6334 18.7971 19.9529 18.7971C10.2798 18.9533 0 26.5207 0 41.9159C0 46.4633 0.832092 51.1611 2.49628 56.0093C4.71519 62.3792 12.7241 78 21.0797 77.7396C25.4482 77.6355 28.5338 74.6328 34.2198 74.6328C39.7324 74.6328 42.5927 77.7396 47.4639 77.7396C55.8889 77.6181 63.135 63.4206 65.2499 57.0334C53.9473 51.7049 54.554 41.4125 54.554 41.0828ZM44.7423 12.5834C49.4748 6.95995 49.0414 1.83979 48.9028 0C44.725 0.242991 39.8884 2.84646 37.1321 6.05741C34.0984 9.49399 32.3129 13.7463 32.6943 18.5367C37.2188 18.8838 41.3446 16.5581 44.7423 12.5834Z" fill="#0B1124"/>
</svg>
