<svg width="124" height="22" viewBox="0 0 124 22" fill="none" xmlns="http://www.w3.org/2000/svg">
<path d="M99.6212 5.66826V16.2842H117.134V5.66826H99.6213H99.6212ZM99.8352 21.9528C95.9384 21.9528 92.7793 18.8906 92.7793 15.1143V6.83692C92.7793 3.06067 95.9384 0 99.8351 0H116.921C120.818 0 123.976 3.06067 123.976 6.83692V15.1143C123.976 18.8906 120.818 21.9528 116.921 21.9528H99.8352ZM40.325 16.2842V13.9099H61.4819V8.20176H40.325V5.66814H61.4819V0H40.5382C36.6415 0 33.4828 3.06067 33.4828 6.83692V15.1143C33.4828 18.8906 36.6417 21.9528 40.5382 21.9528H61.6066V16.2842H40.325ZM6.26521 13.91V16.2842H24.436V13.91H6.26521ZM6.26521 5.66826V8.20164H24.5601V5.66826H6.26521ZM0.000496403 21.9528V0.0694725H25.0164C28.3212 0.0694725 31.2497 2.66796 31.2497 5.87013C31.2497 8.08682 29.8463 10.0148 27.8862 10.9899L27.8357 11.0566C29.8218 12.0231 31.2491 13.9634 31.2491 16.2003C31.2491 19.4036 28.3208 21.9994 25.0158 21.9994L0 21.946L0.000620502 21.9528H0.000496403Z" fill="#283786"/>
<path d="M94.7448 0.000121242H84.4151L72.0113 8.17618V0.000121242H65V21.9527H72.0113V13.7685L84.7888 21.9527H94.7448L77.927 10.9296L94.7446 0V0.000121242H94.7448Z" fill="#283786"/>
</svg>
