<svg width="93" height="29" viewBox="0 0 93 29" fill="none" xmlns="http://www.w3.org/2000/svg">
<path fill-rule="evenodd" clip-rule="evenodd" d="M0 1.53572H11.2124L12.4415 1.58698L13.619 1.68949L14.7456 1.94528L15.821 2.20156L16.7934 2.61112L17.715 3.02068L18.5854 3.53276L19.4045 4.09608L20.1216 4.71067L20.8382 5.37602L21.4528 6.09312L22.0157 6.86098L22.4765 7.6801L22.9373 8.49971L23.2956 9.37008L23.6031 10.2405L39.5247 0L45.3098 3.89106L32.92 11.8777L34.9165 13.2089L47.4088 5.27351L52.7839 8.85702L40.4458 16.9974L42.5449 18.2774L55.0875 10.2907V1.53572H64.3033V18.994H72.495V27.1852H55.0875V18.789L39.5755 28.7726L23.7554 18.0724L23.4479 18.994L23.1408 19.8644L22.68 20.7347L22.2192 21.6056L21.6559 22.3735L21.0413 23.1418L20.3759 23.8584L19.6081 24.4725L18.8402 25.0871L17.9186 25.5992L16.997 26.06L15.9728 26.4696L14.8974 26.7766L13.7712 26.9811L12.5938 27.1349L11.3139 27.1862H0V1.53572ZM8.80626 9.57363H11.2124L12.2878 9.67614L13.1581 9.98319L13.926 10.444L14.5914 11.0586L15.0527 11.7752L15.411 12.5436L15.6155 13.4139L15.6668 14.2843L15.6155 15.1547L15.411 16.0255L15.0527 16.7934L14.5406 17.5105L13.926 18.1246L13.1581 18.5859L12.2365 18.893L11.2124 18.9955H8.80626V9.57363ZM74.799 1.53572H84.0661V18.994H92.207V27.1852H74.7995V1.53572H74.799Z" fill="#0382C7"/>
</svg>
