<svg width="16" height="20" viewBox="0 0 16 20" fill="none" xmlns="http://www.w3.org/2000/svg">
<path fill-rule="evenodd" clip-rule="evenodd" d="M3.18166 4.86987V4.75C3.18166 2.58225 4.64927 0.689515 6.74871 0.149659C7.52472 -0.0498862 8.33859 -0.0498862 9.1146 0.149659C11.214 0.689516 12.6817 2.58226 12.6817 4.75V4.86987H14.1828C14.7541 4.86987 15.2389 5.28886 15.3217 5.8541L15.5404 7.34655C15.9709 10.285 15.9709 13.2705 15.5404 16.209C15.3325 17.628 14.1882 18.7251 12.7616 18.873L12.1328 18.9382C9.33952 19.2279 6.52379 19.2279 3.73052 18.9382L3.10165 18.873C1.67512 18.7251 0.530825 17.628 0.322907 16.209C-0.107636 13.2705 -0.107636 10.285 0.322908 7.34655L0.541582 5.8541C0.624402 5.28885 1.10925 4.86987 1.68053 4.86987H3.18166ZM7.12227 1.6024C7.65322 1.46587 8.21009 1.46587 8.74104 1.6024C10.1775 1.97177 11.1817 3.26681 11.1817 4.75V4.86987H4.68166V4.75C4.68166 3.2668 5.68581 1.97177 7.12227 1.6024ZM3.18166 6.36987V8.61987C3.18166 9.03409 3.51744 9.36987 3.93166 9.36987C4.34587 9.36987 4.68166 9.03409 4.68166 8.61987V6.36987H11.1817V8.61987C11.1817 9.03409 11.5174 9.36987 11.9317 9.36987C12.3459 9.36987 12.6817 9.03409 12.6817 8.61987V6.36987H13.8813L14.0562 7.56401C14.4657 10.3583 14.4657 13.1973 14.0562 15.9915C13.9478 16.7317 13.351 17.3038 12.6069 17.381L11.9781 17.4462C9.28766 17.7252 6.57564 17.7252 3.88525 17.4462L3.25638 17.381C2.51234 17.3038 1.91551 16.7317 1.80706 15.9915C1.39765 13.1973 1.39765 10.3583 1.80706 7.56401L1.98203 6.36987H3.18166Z" fill="#0B1124"/>
</svg>
