<svg width="63" height="63" viewBox="0 0 63 63" fill="none" xmlns="http://www.w3.org/2000/svg">
<path d="M31.3139 0.103452C32.2463 0.0980828 33.1752 -0.11311 34.1005 0.0837646C38.1973 0.447088 42.2367 1.57285 45.8808 3.49149C50.5951 5.90589 54.6507 9.57672 57.5929 13.976C60.5944 18.4504 62.3714 23.7195 62.7723 29.0888C62.7063 30.5099 62.6649 31.9399 62.8028 33.3574C62.5094 37.4399 61.4873 41.4884 59.6655 45.1645C57.5877 49.4367 54.5107 53.2167 50.7649 56.1376C46.0972 59.7977 40.3699 62.0868 34.4601 62.6293C33.56 62.6937 32.6612 62.8602 31.7559 62.7904C31.1562 62.7508 30.5423 62.9425 29.9662 62.6972C32.1731 56.4886 34.378 50.2779 36.6044 44.0746C39.0276 44.0298 41.4529 44.0907 43.8761 44.0459C45.4226 43.9922 46.9511 43.0506 47.4594 41.5474C49.5087 35.7772 51.6099 30.0231 53.5947 24.2278C53.9205 23.3526 54.1012 22.3772 53.8417 21.4608C53.4909 20.2992 52.428 19.4777 51.2859 19.1699C50.2946 18.8621 49.2472 18.9748 48.2272 18.9569C45.1166 18.948 42.006 18.973 38.8971 18.9426C38.847 19.0464 38.7448 19.2522 38.6949 19.3542C33.6583 33.5006 28.631 47.6507 23.5749 61.7897C18.381 60.442 13.5414 57.7431 9.68267 54.0132C5.03463 49.5654 1.80767 43.6504 0.613892 37.3271C0.23983 35.4282 0.103807 33.4952 0 31.5676C0.0841193 27.5532 0.742756 23.5208 2.25511 19.7874C5.94383 10.3571 14.4793 2.93129 24.4018 0.808622C19.3224 14.8923 14.3611 29.019 9.28355 43.1045C9.6075 43.203 9.94756 43.1654 10.2805 43.1688C12.1311 43.1598 13.9835 43.1725 15.8341 43.1652C16.0865 43.1634 16.0596 42.8126 16.1652 42.6515C18.3953 36.3551 20.6522 30.0676 22.8894 23.7748C23.0236 23.3846 23.1489 22.9909 23.3279 22.6204C24.4877 22.6401 25.6474 22.615 26.8072 22.6329C24.3749 29.4537 21.9641 36.2853 19.496 43.0934C19.7537 43.1972 20.0347 43.165 20.305 43.1706C22.2487 43.1525 24.1924 43.1829 26.1361 43.1562C28.3321 36.9583 30.555 30.771 32.7566 24.5766C33.2271 23.3095 33.2683 21.8114 32.5203 20.6427C31.8671 19.6082 30.6268 19.1142 29.4437 19.0659C27.8258 19.0176 26.206 19.0695 24.5863 19.0409C26.8126 12.7231 29.1053 6.42851 31.3139 0.103452Z" fill="#015294"/>
</svg>
