<svg width="111" height="111" viewBox="0 0 111 111" fill="none" xmlns="http://www.w3.org/2000/svg">
<path d="M30.7274 78.4536C43.2788 78.4536 53.4547 68.2782 53.4547 55.7268C53.4547 43.1754 43.2793 33 30.7274 33C18.1754 33 8 43.1754 8 55.7268C8 68.2782 18.1754 78.4536 30.7274 78.4536Z" fill="#A70B52"/>
<path d="M36.4519 63.7882H31.7454V46H30V65.5434H31.7454V65.5319H36.4519V63.7882Z" fill="#FEFEFF"/>
<path d="M47.3072 55.7531H35.5874V54.0076H49.0239C49.0417 54.3451 49.0504 54.6831 49.0504 55.0252C49.0504 65.5329 40.5323 74.0504 30.0252 74.0504C19.5181 74.0504 11 65.5329 11 55.0252C11 44.5175 19.5181 36 30.0258 36C30.3027 36 30.5792 36.0058 30.8538 36.0179L30.8515 37.75C30.5765 37.7373 30.3011 37.731 30.0258 37.731C20.4746 37.731 12.731 45.474 12.731 55.0252C12.731 64.5769 20.474 72.3193 30.0258 72.3193C39.3166 72.3193 46.8961 64.9933 47.3026 55.802L47.3072 55.7531Z" fill="#FEFEFF"/>
<path d="M23.6734 51.3468C24.3825 51.3468 25.0624 51.0652 25.5638 50.5638C26.0652 50.0624 26.3468 49.3825 26.3468 48.6734C26.3468 47.9644 26.0652 47.2844 25.5638 46.783C25.0624 46.2817 24.3825 46 23.6734 46C22.9644 46 22.2844 46.2817 21.783 46.783C21.2817 47.2844 21 47.9644 21 48.6734C21 49.3825 21.2817 50.0624 21.783 50.5638C22.2844 51.0652 22.9644 51.3468 23.6734 51.3468Z" fill="#FEFEFF"/>
<path d="M65 67.0591H81.2398V62.1545H70.9624V44.592H65V67.0591ZM100.861 46.1739C98.9992 44.7313 96.6019 44 93.7411 44C90.3441 44 87.5057 45.0435 85.5322 47.0152C83.4724 49.0762 82.3817 52.1121 82.3817 55.7947C82.3817 59.729 83.5345 63.0488 85.6278 65.1403C87.2713 66.7832 89.4607 67.6499 91.9663 67.6499C97.4663 67.6499 98.7314 64.3531 98.7314 64.3531V67.0579H103.698V54.3695H93.8113V58.34H98.3617C98.3617 58.34 98.4055 63.339 93.7088 63.339C92.5156 63.339 91.4526 62.906 90.6349 62.0883C89.3605 60.815 88.6867 58.6694 88.6867 55.888C88.6867 51.2811 90.518 48.5308 93.5838 48.5308C95.4991 48.5308 96.9388 49.7067 97.3079 51.489H103.633C103.305 48.8994 102.595 47.5496 100.861 46.1739Z" fill="#808183"/>
</svg>
