<svg width="83" height="20" viewBox="0 0 83 20" fill="none" xmlns="http://www.w3.org/2000/svg">
<path d="M0.675733 19.7222C0.487996 19.7222 0.328515 19.6577 0.197088 19.5278C0.065662 19.3978 0 19.2411 0 19.0556V0.972218C0 0.768548 0.065662 0.601883 0.197088 0.47222C0.328515 0.342558 0.487996 0.277777 0.675733 0.277777H8.84086C10.3613 0.277777 11.6001 0.509222 12.5574 0.972218C13.5147 1.41666 14.2186 2.037 14.6691 2.83333C15.1384 3.62966 15.373 4.55555 15.373 5.61111C15.373 6.31478 15.2415 6.93522 14.9788 7.47222C14.7347 7.99077 14.425 8.41667 14.0496 8.75C13.693 9.08333 13.3364 9.34256 12.9797 9.52778C13.7118 9.86111 14.3594 10.4167 14.9225 11.1944C15.4856 11.9722 15.7671 12.8981 15.7671 13.9722C15.7671 15.0833 15.5137 16.0741 15.0069 16.9444C14.5001 17.8145 13.7493 18.5 12.7545 19C11.7597 19.4812 10.5302 19.7222 9.0661 19.7222H0.675733ZM3.91363 16.7778H8.61561C9.62922 16.7778 10.3988 16.5092 10.9244 15.9722C11.45 15.4167 11.7127 14.75 11.7127 13.9722C11.7127 13.1574 11.4405 12.4815 10.8962 11.9444C10.3706 11.4074 9.61041 11.1389 8.61561 11.1389H3.91363V16.7778ZM3.91363 8.25H8.33406C9.32885 8.25 10.0704 8.01855 10.5584 7.55555C11.0652 7.07411 11.3186 6.45367 11.3186 5.69444C11.3186 4.91667 11.0652 4.30555 10.5584 3.86111C10.0704 3.41667 9.32885 3.19444 8.33406 3.19444H3.91363V8.25ZM24.8834 19.7222C24.6957 19.7222 24.5361 19.6577 24.4048 19.5278C24.2733 19.3978 24.2077 19.2411 24.2077 19.0556V3.69444H18.9989C18.8112 3.69444 18.6516 3.62966 18.5203 3.5C18.3888 3.37034 18.3232 3.21299 18.3232 3.02777V0.972218C18.3232 0.768548 18.3888 0.601883 18.5203 0.47222C18.6516 0.342558 18.8112 0.277777 18.9989 0.277777H33.3583C33.5647 0.277777 33.7336 0.342558 33.8651 0.47222C33.9964 0.601883 34.0621 0.768548 34.0621 0.972218V3.02777C34.0621 3.21299 33.9964 3.37034 33.8651 3.5C33.7336 3.62966 33.5647 3.69444 33.3583 3.69444H28.1776V19.0556C28.1776 19.2411 28.1119 19.3978 27.9805 19.5278C27.8491 19.6577 27.6802 19.7222 27.4737 19.7222H24.8834ZM41.1481 20C39.0646 20 37.4128 19.4077 36.1927 18.2222C34.9726 17.037 34.3156 15.3519 34.2218 13.1667C34.203 12.9814 34.1937 12.75 34.1937 12.4722C34.1937 12.1759 34.203 11.9444 34.2218 11.7778C34.2968 10.3703 34.616 9.16666 35.1791 8.16666C35.7609 7.14811 36.5587 6.37034 37.5723 5.83333C38.5859 5.27778 39.7778 5 41.1481 5C42.6685 5 43.9449 5.31478 44.9773 5.94444C46.0096 6.55555 46.7886 7.41667 47.3142 8.52778C47.8397 9.62034 48.1025 10.8889 48.1025 12.3333V12.9167C48.1025 13.1019 48.0368 13.2592 47.9054 13.3889C47.774 13.5185 47.6051 13.5833 47.3986 13.5833H38.051C38.051 13.5833 38.051 13.6111 38.051 13.6667C38.051 13.7222 38.051 13.7686 38.051 13.8056C38.0697 14.4537 38.1918 15.0556 38.417 15.6111C38.661 16.1481 39.0083 16.5833 39.4588 16.9167C39.928 17.25 40.4817 17.4167 41.1199 17.4167C41.6454 17.4167 42.0866 17.3426 42.4433 17.1944C42.7998 17.0278 43.0908 16.8426 43.3161 16.6389C43.5413 16.4352 43.7008 16.2686 43.7947 16.1389C43.9637 15.9167 44.095 15.787 44.1889 15.75C44.3015 15.6944 44.461 15.6667 44.6675 15.6667H47.0889C47.2766 15.6667 47.4268 15.7222 47.5394 15.8333C47.6707 15.9444 47.7271 16.0833 47.7084 16.25C47.6896 16.5463 47.53 16.9074 47.2297 17.3333C46.9482 17.7589 46.5352 18.1756 45.9909 18.5833C45.4465 18.9911 44.7614 19.3333 43.9355 19.6111C43.1283 19.87 42.1992 20 41.1481 20ZM38.051 11.25H44.2734V11.1667C44.2734 10.4444 44.1513 9.81478 43.9074 9.27778C43.6633 8.72222 43.3066 8.29633 42.8374 8C42.3681 7.68522 41.805 7.52778 41.1481 7.52778C40.4911 7.52778 39.928 7.68522 39.4588 8C38.9895 8.29633 38.6328 8.72222 38.3889 9.27778C38.1636 9.81478 38.051 10.4444 38.051 11.1667V11.25ZM58.2708 20C56.9194 20 55.7275 19.75 54.6951 19.25C53.6815 18.75 52.8838 18.0278 52.3018 17.0833C51.7387 16.1203 51.429 14.963 51.3727 13.6111C51.354 13.3333 51.3446 12.9722 51.3446 12.5278C51.3446 12.0648 51.354 11.6852 51.3727 11.3889C51.429 10.037 51.7387 8.88889 52.3018 7.94444C52.8838 6.98145 53.6815 6.25 54.6951 5.75C55.7275 5.25 56.9194 5 58.2708 5C59.4722 5 60.4951 5.16667 61.3398 5.5C62.1845 5.81478 62.879 6.23145 63.4233 6.75C63.9677 7.25 64.3712 7.77777 64.634 8.33333C64.9156 8.87033 65.0658 9.36111 65.0845 9.80555C65.1033 10.0092 65.0376 10.1759 64.8874 10.3056C64.7561 10.4167 64.5965 10.4722 64.4087 10.4722H61.9311C61.7434 10.4722 61.5932 10.4259 61.4806 10.3333C61.3867 10.2408 61.2929 10.1019 61.199 9.91666C60.9175 9.17589 60.5421 8.65744 60.0728 8.36111C59.6223 8.04632 59.0405 7.88889 58.3271 7.88889C57.3887 7.88889 56.6378 8.18522 56.0747 8.77778C55.5304 9.35189 55.2395 10.2685 55.2019 11.5278C55.1644 12.2314 55.1644 12.8797 55.2019 13.4722C55.2395 14.75 55.5304 15.6759 56.0747 16.25C56.6378 16.8241 57.3887 17.1111 58.3271 17.1111C59.0592 17.1111 59.6505 16.963 60.1009 16.6667C60.5514 16.3519 60.9175 15.8241 61.199 15.0833C61.2929 14.8981 61.3867 14.7592 61.4806 14.6667C61.5932 14.5741 61.7434 14.5278 61.9311 14.5278H64.4087C64.5965 14.5278 64.7561 14.5926 64.8874 14.7222C65.0376 14.8333 65.1033 14.9908 65.0845 15.1944C65.0658 15.5278 64.9719 15.9074 64.8029 16.3333C64.6528 16.7408 64.3994 17.1667 64.0427 17.6111C63.7049 18.0367 63.2732 18.4355 62.7476 18.8056C62.2221 19.1577 61.5838 19.4444 60.833 19.6667C60.1009 19.8889 59.2469 20 58.2708 20ZM69.5694 19.7222C69.3817 19.7222 69.2221 19.6577 69.0907 19.5278C68.9594 19.3978 68.8936 19.2411 68.8936 19.0556V0.666664C68.8936 0.481446 68.9594 0.324106 69.0907 0.194444C69.2221 0.0647809 69.3817 0 69.5694 0H72.0756C72.2818 0 72.4417 0.0647809 72.5543 0.194444C72.685 0.324106 72.7514 0.481446 72.7514 0.666664V7C73.2582 6.40744 73.8776 5.92589 74.6096 5.55556C75.3417 5.18522 76.2427 5 77.3126 5C78.4569 5 79.4524 5.25922 80.2971 5.77778C81.1598 6.27778 81.8265 6.99077 82.2961 7.91666C82.7647 8.84256 83 9.95367 83 11.25V19.0556C83 19.2411 82.9336 19.3978 82.8029 19.5278C82.6712 19.6577 82.5113 19.7222 82.3243 19.7222H79.7903C79.6022 19.7222 79.4423 19.6577 79.3116 19.5278C79.1799 19.3978 79.1145 19.2411 79.1145 19.0556V11.4167C79.1145 10.3426 78.842 9.5 78.298 8.88889C77.7721 8.27778 77.0029 7.97222 75.9893 7.97222C75.0129 7.97222 74.2245 8.27778 73.6242 8.88889C73.042 9.5 72.7514 10.3426 72.7514 11.4167V19.0556C72.7514 19.2411 72.685 19.3978 72.5543 19.5278C72.4417 19.6577 72.2818 19.7222 72.0756 19.7222H69.5694Z" fill="#2E3C85"/>
</svg>
