<svg width="110" height="31" viewBox="0 0 110 31" fill="none" xmlns="http://www.w3.org/2000/svg">
<rect x="0.380859" width="109.238" height="31" rx="6" fill="#FEFEFF"/>
<g clip-path="url(#clip0_51716_1380)">
<path d="M55.0648 15.8997H53.8781V9.19491C53.8781 8.66695 53.9065 8.01989 53.9753 7.24977H53.947C53.8336 7.70232 53.7323 8.02386 53.6432 8.21837L50.16 15.8997H49.5728L46.0977 8.27395C45.9964 8.05165 45.8952 7.71026 45.7899 7.24977H45.7615C45.802 7.65071 45.8182 8.30571 45.8182 9.20682V15.8997H44.668V5.90405H46.2435L49.3743 12.8748C49.6173 13.4107 49.7712 13.8077 49.8441 14.0736H49.8846C50.0912 13.5258 50.2532 13.117 50.3747 12.847L53.5703 5.90405H55.0648V15.8997Z" fill="#007B82"/>
<path d="M62.3818 15.8997V5.90405H65.2858C66.1647 5.90405 66.8654 6.11842 67.3798 6.5392C67.8982 6.96396 68.1574 7.51574 68.1574 8.19059C68.1574 8.75825 67.9995 9.25049 67.6876 9.67128C67.3757 10.0881 66.9424 10.3858 66.3915 10.5605V10.5922C67.0801 10.6677 67.6309 10.9217 68.044 11.3504C68.4571 11.7831 68.6637 12.3429 68.6637 13.0296C68.6637 13.8831 68.3478 14.5738 67.724 15.1058C67.0963 15.6377 66.3065 15.8997 65.3547 15.8997H62.3818ZM63.5766 6.96396V10.1913H64.7998C65.4519 10.1913 65.9663 10.0365 66.3429 9.73082C66.7196 9.42119 66.9059 8.98452 66.9059 8.42083C66.9059 7.44826 66.2538 6.96396 64.9497 6.96396H63.5766ZM63.5766 11.2433V14.8438H65.2008C65.9015 14.8438 66.4442 14.677 66.829 14.3555C67.2178 14.03 67.4122 13.5814 67.4122 13.0137C67.4122 11.8347 66.59 11.2433 64.9497 11.2433H63.5766ZM78.6231 15.8997H77.3028L76.2214 13.0971H71.8958L70.8792 15.8997H69.5507L73.4632 5.90405H74.6985L78.6231 15.8997ZM75.8285 12.0451L74.2287 7.78965C74.176 7.64674 74.1234 7.42444 74.0748 7.11877H74.0424C73.9978 7.40062 73.9411 7.62292 73.8803 7.78965L72.2927 12.0451H75.8285ZM88.3477 15.8997H86.8815L81.6324 7.93256C81.4988 7.73407 81.3894 7.52368 81.3044 7.30535H81.2639C81.3003 7.51971 81.3206 7.97622 81.3206 8.67886V15.8997H80.1258V5.90405H81.677L86.7802 13.7481C86.9949 14.0697 87.1326 14.2959 87.1933 14.415H87.2217C87.1731 14.1292 87.1488 13.637 87.1488 12.9463V5.90405H88.3477V15.8997ZM98.1167 15.8997H96.4521L92.5113 11.3266C92.3655 11.1559 92.2723 11.0408 92.2439 10.9813H92.2115V15.8997H91.0208V5.90405H92.2115V10.6041H92.2439C92.3087 10.5009 92.3979 10.3898 92.5113 10.2628L96.3225 5.90405H97.8089L93.4347 10.6994L98.1167 15.8997Z" fill="#007B82"/>
<path d="M47.738 22.5458C47.9405 22.1925 48.0904 21.8789 48.1957 21.605C48.305 21.335 48.3536 21.1246 48.3536 20.9698C48.3536 20.9063 48.3334 20.8507 48.2929 20.7951C48.2524 20.7435 48.2038 20.7197 48.1511 20.7197C48.0296 20.7197 47.9041 20.8507 47.7785 21.1087C47.6489 21.3668 47.5841 21.6446 47.5841 21.9384C47.5882 22.0416 47.6044 22.1409 47.6246 22.2361C47.6449 22.3354 47.6854 22.4386 47.738 22.5458ZM49.5971 22.0218V22.5458C49.2325 22.8316 48.9328 23.0301 48.6979 23.1412C48.463 23.2563 48.2443 23.3159 48.0458 23.3159C48.0094 23.3159 47.9446 23.3079 47.8474 23.3C47.8109 23.296 47.7866 23.2921 47.7623 23.2881C47.4181 23.6811 47.0859 23.9748 46.7822 24.1654C46.4784 24.3559 46.1787 24.4512 45.8952 24.4512C45.5226 24.4512 45.2228 24.3123 45.0001 24.0344C44.7773 23.7565 44.668 23.3834 44.668 22.907C44.668 22.3592 44.8097 21.8312 45.1013 21.3231C45.393 20.815 45.798 20.3744 46.3164 20.0052C46.5513 19.8424 46.8024 19.7035 47.0778 19.5884C47.3492 19.4772 47.5477 19.4216 47.6692 19.4216C47.7218 19.4216 47.7664 19.4415 47.8028 19.4851C47.8393 19.5248 47.8555 19.5725 47.8555 19.632C47.8555 19.7432 47.7178 19.8543 47.4464 19.9694C47.171 20.0846 46.9442 20.2037 46.7619 20.3188C46.3204 20.6046 45.9519 20.9936 45.6684 21.4859C45.3808 21.9741 45.235 22.4426 45.235 22.8911C45.235 23.1849 45.312 23.4389 45.4618 23.6414C45.6157 23.8478 45.7939 23.951 46.0086 23.951C46.1989 23.951 46.4096 23.8716 46.6364 23.7168C46.8632 23.558 47.1224 23.3159 47.41 22.9864C47.3006 22.8078 47.2196 22.6371 47.1669 22.4664C47.1143 22.2996 47.0859 22.125 47.0859 21.9503C47.0859 21.4938 47.2155 21.081 47.4788 20.7038C47.7421 20.3267 48.0053 20.1362 48.2726 20.1362C48.4347 20.1362 48.5724 20.2076 48.6777 20.3505C48.787 20.4934 48.8397 20.6721 48.8397 20.8864C48.8397 21.1484 48.7749 21.4501 48.6412 21.7995C48.5076 22.1528 48.3212 22.4942 48.0863 22.8356H48.1106C48.2605 22.8356 48.4428 22.78 48.6534 22.6649C48.868 22.5497 49.1799 22.3354 49.5971 22.0218ZM49.3257 22.7442V22.2123C49.674 21.9622 49.9818 21.7082 50.2451 21.4501C50.5084 21.1961 50.6704 21.0095 50.7311 20.8864L51.3265 19.6995H51.9097L50.2896 23.0301C51.5736 21.7876 52.5497 20.8984 53.2179 20.3664C53.8822 19.8345 54.3479 19.5685 54.6112 19.5685C54.676 19.5685 54.7287 19.5963 54.7611 19.6519C54.7975 19.7074 54.8137 19.7908 54.8137 19.898C54.8137 19.9536 54.8016 20.0131 54.7813 20.0846C54.7611 20.1521 54.7165 20.2632 54.6517 20.414L53.2584 23.3754C53.2301 23.4429 53.2058 23.4945 53.1977 23.5223C53.1855 23.5541 53.1815 23.5739 53.1815 23.5858C53.1815 23.6215 53.1855 23.6533 53.2017 23.6732C53.2179 23.693 53.2382 23.7049 53.2584 23.7129C53.3313 23.7129 53.5784 23.566 53.9915 23.2762C54.4087 22.9864 54.9433 22.5815 55.5994 22.0694V22.5974L55.2876 22.8316C53.8336 23.9391 52.9587 24.4909 52.655 24.4909C52.578 24.4909 52.5132 24.4552 52.4605 24.3837C52.4079 24.3123 52.3795 24.221 52.3795 24.1098C52.3795 24.0582 52.3957 23.9947 52.4241 23.9153C52.4524 23.8359 52.4929 23.7446 52.5456 23.6414L53.866 20.9182C53.9429 20.7713 53.9875 20.68 54.0037 20.6403C54.0239 20.6006 54.032 20.5728 54.032 20.557C54.032 20.5173 54.028 20.4895 54.0158 20.4696C54.0077 20.4498 53.9956 20.4418 53.9794 20.4418C53.9227 20.4418 53.7526 20.5411 53.4812 20.7435C53.2058 20.946 52.8939 21.204 52.5456 21.5136C52.1203 21.8789 51.7194 22.252 51.3427 22.6252C50.966 23.0023 50.6339 23.3595 50.3423 23.697C50.2977 23.7525 50.237 23.824 50.16 23.9193C49.8765 24.2765 49.6416 24.4512 49.4513 24.4512C49.3702 24.4512 49.3014 24.4234 49.2528 24.3599C49.2082 24.2964 49.1799 24.213 49.1799 24.1098C49.1799 23.9828 49.3824 23.566 49.7834 22.8594C49.9737 22.5299 50.1195 22.2599 50.2289 22.0575C50.0628 22.2083 49.9049 22.3393 49.755 22.4545C49.6052 22.5696 49.4634 22.6649 49.3257 22.7442ZM58.868 22.0694V22.5974C58.7303 22.7046 58.5358 22.8514 58.2807 23.0459C57.0494 23.9828 56.3163 24.4512 56.0774 24.4512C55.9518 24.4512 55.8627 24.4234 55.802 24.3639C55.7412 24.3004 55.7088 24.2091 55.7088 24.082C55.7088 23.9987 55.725 23.8994 55.7574 23.7764C55.7898 23.6533 55.8546 23.4628 55.9518 23.2087L56.4135 21.9741C56.2475 22.117 56.0814 22.256 55.9113 22.383C55.7453 22.51 55.5751 22.6291 55.3969 22.7442V22.2123C55.7574 21.9463 56.0733 21.6843 56.3447 21.4223C56.612 21.1603 56.7659 20.9817 56.8024 20.8864L58.8032 15.5274C58.9166 15.2138 59.0097 15.0074 59.0867 14.9081C59.1596 14.8089 59.2446 14.7612 59.3418 14.7612C59.4107 14.7612 59.4714 14.793 59.5241 14.8525C59.5727 14.9121 59.597 14.9835 59.597 15.0669C59.597 15.186 59.5484 15.4162 59.4471 15.7576C59.3459 16.103 59.2082 16.5039 59.03 16.9604C58.8477 17.4328 58.6411 17.9171 58.4103 18.4173C58.1835 18.9175 58.062 19.1914 58.0417 19.239L56.531 23.3834C56.5107 23.4389 56.4905 23.4866 56.4824 23.5263C56.4702 23.566 56.4662 23.5938 56.4662 23.6017C56.4662 23.6255 56.4743 23.6533 56.4905 23.6771C56.5107 23.7009 56.5269 23.7129 56.5431 23.7129C56.616 23.7129 56.851 23.566 57.256 23.2802C57.661 22.9943 58.1997 22.5894 58.868 22.0694ZM59.4917 23.3754C59.4714 23.4231 59.4512 23.4667 59.435 23.5025C59.4228 23.5422 59.4107 23.5699 59.4107 23.5858C59.4107 23.6215 59.4228 23.6533 59.439 23.6771C59.4552 23.7009 59.4714 23.7129 59.4917 23.7129C59.5686 23.7129 59.8117 23.566 60.2248 23.2762C60.6379 22.9824 61.1766 22.5815 61.8287 22.0694V22.5974L61.5208 22.8316C60.0668 23.9391 59.1879 24.4909 58.8842 24.4909C58.8072 24.4909 58.7424 24.4552 58.6897 24.3837C58.6411 24.3123 58.6168 24.221 58.6168 24.1098C58.6168 24.0463 58.6249 23.9788 58.6492 23.8955C58.6776 23.8161 58.71 23.7327 58.7586 23.6414L59.5848 22.0575C59.4188 22.2044 59.2568 22.3393 59.111 22.4545C58.9611 22.5696 58.8194 22.6649 58.6816 22.7442V22.2123C59.03 21.9622 59.3337 21.7082 59.597 21.4541C59.8603 21.1961 60.0223 21.0095 60.0871 20.8864L60.6784 19.6995H61.2576L59.4917 23.3754ZM61.371 18.7865C61.2738 18.7865 61.1968 18.7587 61.1442 18.7031C61.0875 18.6475 61.0591 18.5721 61.0591 18.4808C61.0591 18.3022 61.1199 18.1315 61.2373 17.9687C61.3507 17.8099 61.4844 17.7266 61.6261 17.7266C61.7193 17.7266 61.7922 17.7544 61.853 17.8139C61.9097 17.8735 61.938 17.9489 61.938 18.0442C61.938 18.2466 61.8854 18.4213 61.776 18.5642C61.6666 18.715 61.533 18.7865 61.371 18.7865ZM61.6221 22.7442V22.2123C61.9704 21.9622 62.2742 21.7082 62.5374 21.4501C62.8007 21.1961 62.9627 21.0095 63.0275 20.8864L63.6229 19.6995H64.2021L62.586 23.0301C63.87 21.7876 64.846 20.8984 65.5103 20.3664C66.1745 19.8345 66.6403 19.5685 66.9035 19.5685C66.9684 19.5685 67.021 19.5963 67.0575 19.6519C67.0899 19.7074 67.1101 19.7908 67.1101 19.898C67.1101 19.9536 67.098 20.0131 67.0737 20.0846C67.0534 20.1521 67.0089 20.2632 66.944 20.414L65.5548 23.3754C65.5224 23.4429 65.5022 23.4945 65.49 23.5223C65.4779 23.5541 65.4738 23.5739 65.4738 23.5858C65.4738 23.6215 65.4819 23.6533 65.4981 23.6732C65.5143 23.693 65.5305 23.7049 65.5548 23.7129C65.6277 23.7129 65.8748 23.566 66.2879 23.2762C66.701 22.9864 67.2397 22.5815 67.8918 22.0694V22.5974L67.584 22.8316C66.13 23.9391 65.2511 24.4909 64.9473 24.4909C64.8703 24.4909 64.8096 24.4552 64.7569 24.3837C64.7043 24.3123 64.6759 24.221 64.6759 24.1098C64.6759 24.0582 64.6921 23.9947 64.7205 23.9153C64.7488 23.8359 64.7893 23.7446 64.842 23.6414L66.1624 20.9182C66.2353 20.7713 66.2798 20.68 66.3001 20.6403C66.3163 20.6006 66.3244 20.5728 66.3244 20.557C66.3244 20.5173 66.3203 20.4895 66.3122 20.4696C66.3041 20.4498 66.2879 20.4418 66.2758 20.4418C66.215 20.4418 66.049 20.5411 65.7735 20.7435C65.4981 20.946 65.1903 21.204 64.842 21.5136C64.4127 21.8789 64.0158 22.252 63.6391 22.6252C63.2624 23.0023 62.9303 23.3595 62.6387 23.697C62.5941 23.7525 62.5334 23.824 62.4524 23.9193C62.1729 24.2765 61.934 24.4512 61.7476 24.4512C61.6626 24.4512 61.5978 24.4234 61.5492 24.3599C61.5006 24.2964 61.4763 24.213 61.4763 24.1098C61.4763 23.9828 61.6788 23.566 62.0757 22.8594C62.2661 22.5299 62.4159 22.2599 62.5253 22.0575C62.3592 22.2083 62.1972 22.3393 62.0514 22.4545C61.9016 22.5696 61.7598 22.6649 61.6221 22.7442ZM72.2701 22.0694V22.5974C71.2778 23.3794 70.5568 23.8796 70.1154 24.1098C69.6698 24.3361 69.2608 24.4512 68.88 24.4512C68.4426 24.4512 68.1024 24.3242 67.8634 24.0701C67.6245 23.8121 67.503 23.4469 67.503 22.9705C67.503 22.5974 67.5921 22.2242 67.7703 21.859C67.9485 21.4898 68.2118 21.1365 68.5601 20.7951C68.9448 20.422 69.3377 20.1282 69.7265 19.9218C70.1235 19.7114 70.4799 19.6082 70.7998 19.6082C71.0712 19.6082 71.2859 19.6717 71.4357 19.7948C71.5856 19.9258 71.6625 20.1044 71.6625 20.3307C71.6625 20.9261 71.3547 21.4541 70.731 21.9225C70.1073 22.3909 69.358 22.6252 68.4791 22.6252C68.3819 22.6252 68.313 22.6252 68.2644 22.6252C68.2199 22.6212 68.1753 22.6172 68.1308 22.6133C68.1105 22.6807 68.0943 22.7482 68.0862 22.8078C68.0741 22.8673 68.07 22.9308 68.07 22.9943C68.07 23.3119 68.147 23.5541 68.2968 23.7168C68.4426 23.8796 68.6654 23.9629 68.957 23.9629C69.2851 23.9629 69.6577 23.8518 70.0749 23.6295C70.492 23.4072 71.2251 22.8872 72.2701 22.0694ZM68.2077 22.1488C68.2806 22.1567 68.3495 22.1647 68.4183 22.1686C68.4912 22.1726 68.5641 22.1766 68.637 22.1766C69.2486 22.1766 69.8116 21.9781 70.326 21.5772C70.8403 21.1802 71.0955 20.7912 71.0955 20.4061C71.0955 20.3029 71.059 20.2195 70.9902 20.16C70.9132 20.1004 70.816 20.0687 70.6945 20.0687C70.3422 20.0687 69.9209 20.2672 69.4268 20.6641C68.9327 21.0611 68.5236 21.5533 68.2077 22.1488Z" fill="#FECC00"/>
<path fill-rule="evenodd" clip-rule="evenodd" d="M36.5516 15.2693L36.5556 15.3845C36.5516 18.4768 35.2717 21.2794 33.2021 23.304C31.1324 25.3285 28.273 26.5829 25.1179 26.5829V26.5869H25.1138H25.1098V26.5829C21.9506 26.5829 19.0912 25.3285 17.0215 23.304C14.9519 21.2755 13.672 18.4768 13.672 15.3884H13.668V15.3845H13.672V15.2495L13.6761 14.7612L14.0851 15.0351L25.1179 22.3274L36.1385 15.055L36.5516 14.7811V15.2693Z" fill="#007B82"/>
<path fill-rule="evenodd" clip-rule="evenodd" d="M35.1867 11.756C35.3608 12.2403 35.4985 12.7445 35.6038 13.2565L24.64 20.4734L13.668 13.2526C13.7692 12.7445 13.9069 12.2482 14.0811 11.7639L24.64 18.7148L35.1867 11.756ZM33.6354 8.88592C33.9311 9.27495 34.1984 9.6878 34.4374 10.1126L24.64 16.5593L14.8385 10.1006C15.0774 9.67589 15.3448 9.26701 15.6364 8.87799L24.64 14.8047L33.6354 8.88592ZM31.2499 6.55176C31.667 6.85345 32.0599 7.17896 32.4244 7.5283L24.64 12.6492L16.8433 7.5283C17.2078 7.17896 17.5967 6.85345 18.0098 6.55969L24.64 10.9184L31.2499 6.55176ZM24.6359 4.42798C26.3937 4.42798 28.0543 4.82892 29.5366 5.53552L29.5326 5.53949L24.64 8.76287L19.7311 5.53552C21.2135 4.82495 22.8741 4.42798 24.6359 4.42798Z" fill="#FECC00"/>
</g>
<defs>
<clipPath id="clip0_51716_1380">
<rect width="84.1429" height="22.1429" fill="white" transform="translate(13.667 4.42847)"/>
</clipPath>
</defs>
</svg>
