<svg width="150" height="36" viewBox="0 0 150 36" fill="none" xmlns="http://www.w3.org/2000/svg">
<path d="M38.1181 18.2757V1.23685H43.481V2.36299C43.481 2.98251 43.4906 3.48931 43.5021 3.48931C43.5138 3.48931 43.8523 3.28513 44.2543 3.03563C48.9974 0.0921051 55.8922 -0.794338 62.0762 0.744488C67.6475 2.13093 71.6864 5.42189 73.1221 9.74538C73.9611 12.2719 73.9149 15.0815 72.994 17.5248C71.8485 20.5643 69.4937 23.008 66.0971 24.6821C63.1248 26.1471 59.731 26.8806 55.9262 26.8806C52.7721 26.8806 49.8303 26.3594 47.2408 25.342C46.2133 24.9383 44.8962 24.2756 44.0972 23.7602L43.481 23.3627V35.3148H38.1181V18.2757ZM58.5203 22.3508C61.5369 21.9268 63.8773 20.9785 65.6321 19.4692C66.9604 18.3268 67.8854 16.7401 68.2359 15.0031C68.3793 14.2926 68.3796 12.615 68.2367 11.9067C67.8241 9.86241 66.6418 8.07674 64.8721 6.8246C64.1588 6.31995 62.7098 5.60067 61.7848 5.29241C59.173 4.4219 56.0061 4.1641 53.1056 4.58591C48.0697 5.31814 44.6661 7.79304 43.7529 11.386C43.35 12.9713 43.422 14.6827 43.9545 16.1784C45.1637 19.5759 48.73 21.8369 53.7695 22.4011C54.7828 22.5146 57.5647 22.4851 58.5205 22.3508H58.5203ZM76.2996 18.2757V1.23685H81.6623V2.36299C81.6623 2.98251 81.674 3.48931 81.6881 3.48931C81.7023 3.48931 81.9973 3.30621 82.3438 3.08261C83.1456 2.56469 84.728 1.79013 85.7427 1.41911C90.1229 -0.182792 95.471 -0.441255 100.151 0.723074C107.781 2.62096 112.273 7.8206 111.849 14.2614C111.525 19.1779 108.224 23.2163 102.793 25.3387C101.022 26.0309 99.2063 26.4675 96.9343 26.7475C95.7351 26.8952 92.5032 26.8952 91.2514 26.7472C87.7082 26.3283 84.5976 25.2859 82.1723 23.7044L81.6623 23.3719V35.3148H76.2996V18.2757ZM96.8316 22.3257C101.009 21.7076 103.953 20.0399 105.5 17.4154C106.399 15.8909 106.735 13.8629 106.402 11.9799C105.709 8.06628 102.238 5.35815 96.9235 4.58508C93.4157 4.07496 89.4552 4.58309 86.763 5.88868C84.0146 7.2215 82.3606 9.21135 81.796 11.8644C81.6479 12.5609 81.6482 14.3514 81.7968 15.034C82.1967 16.8716 83.1006 18.392 84.4723 19.5346C86.3611 21.108 88.8195 22.0449 92.0093 22.4071C93.0644 22.5268 95.7823 22.481 96.8316 22.3257ZM15.9669 26.8454C13.1222 26.5964 10.6941 26.0412 8.62946 25.1673C3.93317 23.1798 0.967002 19.8253 0.162006 15.5913C0.00821024 14.7827 -0.0504264 12.9608 0.0492558 12.0903C0.630595 7.01417 4.40444 2.99347 10.371 1.09359C13.546 0.0826432 17.4543 -0.247698 20.9624 0.198512C27.3895 1.01623 32.2511 3.96922 34.388 8.35346C36.128 11.9231 35.9072 16.2592 33.8157 19.5929C32.8735 21.0945 31.3225 22.6443 29.724 23.6808C27.2372 25.2933 24.267 26.2965 20.6595 26.7422C19.9369 26.8315 16.6372 26.904 15.9669 26.8454ZM19.7712 22.4066C22.5687 22.1124 24.922 21.3209 26.6927 20.0793C28.1402 19.064 29.2858 17.5677 29.7998 16.0207C30.1007 15.1153 30.1603 14.6902 30.1603 13.4528C30.1603 12.2191 30.1015 11.7975 29.8029 10.8914C28.8217 7.91323 25.9519 5.69778 21.942 4.82329C18.4261 4.05637 14.3259 4.32297 11.2882 5.51568C9.09654 6.37623 7.36676 7.76931 6.35218 9.4904C5.2736 11.3206 5.02867 13.8132 5.7169 15.9614C6.4584 18.2762 8.41166 20.2132 11.0996 21.2997C12.5636 21.8915 14.3763 22.304 16.171 22.4534C16.8595 22.5107 19.052 22.4821 19.7712 22.4066ZM130.395 26.8474C130.283 26.8348 129.889 26.796 129.52 26.7614C126.56 26.4834 123.448 25.5571 121.166 24.2749C118.082 22.5415 115.933 20.0778 114.952 17.1493C114.289 15.1676 114.176 12.9404 114.634 10.8913C115.328 7.79288 117.231 5.16193 120.187 3.21607C124.085 0.650034 129.817 -0.489727 135.35 0.201168C139.946 0.775032 143.734 2.44085 146.369 5.04806C148.376 7.03359 149.529 9.36026 149.863 12.094C149.95 12.8044 149.936 14.2412 149.836 14.995C149.113 20.4234 144.769 24.5724 138.118 26.1887C136.102 26.6788 134.836 26.8272 132.464 26.8514C131.438 26.8619 130.507 26.8601 130.395 26.8474ZM133.921 22.4335C137.462 22.1108 140.349 20.9544 142.201 19.1163C143.456 17.8718 144.184 16.5018 144.471 14.8459C144.589 14.1637 144.588 12.7412 144.468 12.0335C143.822 8.22348 140.432 5.46156 135.408 4.65364C134.202 4.45958 133.399 4.39634 132.143 4.39634C126.511 4.39634 122.141 6.50073 120.46 10.0221C119.959 11.0717 119.728 12.1549 119.728 13.4528C119.728 15.1655 120.131 16.5238 121.04 17.8773C122.709 20.362 125.875 21.9492 130.066 22.4028C130.93 22.4962 133.049 22.5132 133.922 22.4336L133.921 22.4335Z" fill="#006B33"/>
</svg>
