<svg width="123" height="22" viewBox="0 0 123 22" fill="none" xmlns="http://www.w3.org/2000/svg">
<path d="M12.48 8.12779C12.48 10.8674 11.1229 12.7228 7.6862 12.7228H6.60025V3.99787C6.98631 3.97656 7.34686 3.97657 7.6862 3.97657C10.9404 3.97627 12.48 5.47794 12.48 8.12779ZM8.95227 16.5218C15.1016 16.5218 18.9896 13.4287 18.9896 8.04046C18.9893 2.11987 14.8299 0 8.04798 0C5.42515 0 2.26012 0.176156 0 0.44114V21.5589H6.60055V16.5218H8.95227ZM97.3894 8.12779C97.3894 10.8674 96.0341 12.7228 92.5965 12.7228H91.5142V3.99787C91.8969 3.97656 92.258 3.97657 92.5965 3.97657C95.851 3.97627 97.3894 5.47794 97.3894 8.12779ZM93.8656 16.5218C100.01 16.5218 103.9 13.4287 103.9 8.04046C103.9 2.11987 99.7414 0 92.9589 0C90.3367 0 87.1698 0.176156 84.9093 0.44114V21.5589H91.5133V16.5218H93.8656ZM112.489 5.83055C112.489 4.68239 113.666 4.15152 115.563 4.15152C117.644 4.15152 119.906 4.59356 121.442 5.21446L120.9 0.618497C119.181 0.264984 117.644 0 114.842 0C109.506 0 105.89 2.05505 105.89 6.36232C105.89 13.7822 116.2 12.2814 116.2 15.7271C116.2 17.0511 115.204 17.7575 112.761 17.7575C110.594 17.7575 107.246 17.0511 105.257 16.0797L105.983 20.9407C107.97 21.6474 110.683 21.9997 112.854 21.9997C118.368 21.9997 122.891 20.2321 122.891 14.93C122.891 7.8643 112.489 9.18832 112.489 5.83055ZM79.9379 0.44114H73.3373V21.5589H79.9379V0.44114ZM53.1708 0.44114H46.5696V21.5589H53.1708V0.44114ZM64.6549 17.3164V0.44114H58.0538V21.5589H69.9912L70.985 17.3164H64.6549ZM41.687 0.44114H35.0858V8.83481H28.2133V0.44114H21.6109V21.5589H28.213V13.2525H35.0855V21.5589H41.6867L41.687 0.44114Z" fill="#1978BE"/>
</svg>
