<svg width="133" height="19" viewBox="0 0 133 19" fill="none" xmlns="http://www.w3.org/2000/svg">
<path fill-rule="evenodd" clip-rule="evenodd" d="M72.4814 8.81723C72.4814 8.81723 71.1954 8.03705 70.4002 7.73517C70.4002 7.73517 67.9388 6.61589 67.4504 6.08337C67.4504 6.08337 66.4911 5.19635 67.0529 4.1661C67.0529 4.1661 67.2879 3.49194 68.3017 3.49194C68.3017 3.49194 69.6215 3.56316 69.6215 4.62741V6.12869H74.3514L74.3431 3.91764C74.3431 3.91764 74.7069 0.296774 68.7719 0.137339C68.7719 0.137339 64.1039 -0.16373 62.7651 2.30306C62.7651 2.30306 62.2397 2.85339 62.2397 4.76985V6.15458C62.2397 6.15458 62.1861 7.75217 63.0176 8.78162C63.0176 8.78162 63.4877 9.45658 64.6459 10.2012C64.6459 10.2012 66.9976 11.4434 68.409 12.1548C68.409 12.1548 69.8335 12.9528 69.6463 14.2226C69.6463 14.2226 69.53 15.5264 68.1541 15.473C68.1541 15.473 66.8961 15.418 66.8961 14.1393V12.6388H61.8561V14.8183C61.8561 14.8183 61.7151 18.9863 68.1912 18.9863C68.1912 18.9863 74.3794 19.1093 74.6681 14.709V12.9342C74.6673 12.9342 74.8867 10.2376 72.4814 8.81723ZM48.2663 0.656108L46.6825 10.3938H46.3121L44.7993 0.743515H36.8986L36.5027 18.3776H41.1806L41.2367 5.09115H41.6046L44.0841 18.3752H49.0054L51.4544 5.096H51.7803L51.8933 18.3776H56.5959L56.0894 0.656108H48.2663ZM20.4201 0.729759L17.3078 18.3574H22.3437L24.1873 4.68973H24.6014L26.4442 18.3574H31.4792L28.3678 0.729759H20.4201ZM126.088 8.57443V11.1748H127.38V13.9661C127.38 15.3306 126.192 15.3557 126.192 15.3557C124.746 15.3557 124.801 14.0591 124.801 14.0591V4.40404C124.801 3.40939 126.084 3.35598 126.084 3.35598C127.314 3.35598 127.322 4.54243 127.322 4.54243V6.01052H132.064C132.219 3.14474 131.637 2.45117 131.637 2.45117C130.46 -0.140254 126.011 0.00137512 126.011 0.00137512C119.174 0.00137512 119.932 5.14861 119.932 5.14861V14.484C120.079 19.3116 126.817 18.8212 126.931 18.8171C129.927 18.4918 130.832 17.557 130.832 17.557C131.665 16.95 131.88 16.1091 131.88 16.1091C132.118 15.6195 132.178 14.0591 132.178 14.0591V8.57443H126.088ZM110.372 11.4434H110.166L105.354 0.660961H99.5976V18.3793H104.283L104.002 7.5984H104.212L109.197 18.3793H114.779V0.659344H110.034L110.372 11.4434ZM88.1606 13.9645C88.1606 13.9645 88.2283 15.4188 86.854 15.4188C86.854 15.4188 85.4089 15.4949 85.4089 14.0009L85.394 0.671483H80.255V13.8949C80.255 13.8949 79.7279 18.8997 86.9266 18.8997C86.9266 18.8997 93.1825 18.9725 93.1825 14.1247V0.672292H88.1606V13.9645ZM10.623 8.81723C10.623 8.81723 9.33868 8.03705 8.54267 7.73598C8.54267 7.73598 6.08289 6.61751 5.59456 6.08417C5.59456 6.08417 4.63523 5.19554 5.1978 4.16772C5.1978 4.16772 5.43206 3.49356 6.44501 3.49356C6.44501 3.49356 7.76564 3.56397 7.76564 4.62822V6.1295H12.4971L12.4881 3.91764C12.4881 3.91764 12.8494 0.296773 6.91684 0.138148C6.91684 0.138148 6.46976 0.10982 5.81398 0.142192C5.81398 0.142192 2.21999 0.331572 0.934833 2.26583C0.927409 2.2804 0.916685 2.29092 0.909261 2.30387C0.909261 2.30387 0.38464 2.85339 0.38464 4.77066V6.15539C0.38464 6.15539 0.330197 7.75298 1.1625 8.78242C1.1625 8.78242 1.63268 9.45739 2.79081 10.202C2.79081 10.202 5.14171 11.4443 6.55307 12.1556C6.55307 12.1556 7.97928 12.952 7.79038 14.2234C7.79038 14.2234 7.67408 15.5272 6.29901 15.4738C6.29901 15.4738 5.04107 15.4188 5.04107 14.1401V12.6388H0.000245781V14.8199C0.000245781 14.8199 -0.140808 18.9879 6.3353 18.9879C6.3353 18.9879 12.5219 19.1109 12.8131 14.7106V12.9374C12.8131 12.9358 13.0292 10.2376 10.623 8.81723Z" fill="#0B1124"/>
</svg>
