<svg width="160" height="28" viewBox="0 0 160 28" fill="none" xmlns="http://www.w3.org/2000/svg">
<path fill-rule="evenodd" clip-rule="evenodd" d="M158.496 24.2774C158.496 24.0478 158.395 23.8062 158.192 23.691C157.987 23.5698 157.758 23.5579 157.528 23.5579H156.343V26.2779H156.675V25.0233H157.287L158.064 26.2779H158.459L157.637 25.0233C158.122 25.0097 158.496 24.8125 158.496 24.2774ZM157.185 24.7613H156.674V23.7994H157.451C157.789 23.7994 158.159 23.8506 158.159 24.2714C158.16 24.8253 157.566 24.7613 157.185 24.7613ZM142.982 11.1269L147.957 5.81393C148.246 5.42389 148.389 5.15078 148.389 4.91692C148.389 4.52688 148.054 4.3707 146.999 4.3707H145.744V1.0165H159.333V4.3707H157.547C155.485 4.3707 155.102 4.68222 152.225 8.30952L144.353 16.8102V21.9977C144.353 23.3249 145.023 23.7917 146.942 23.7917H149.914V27.0281H130.88V23.7917H133.852C135.769 23.7917 136.441 23.3249 136.441 21.9977V16.8102L127.169 6.55391C125.637 4.76074 125.849 4.3707 121.583 4.3707V1.0165H138.796V4.3707H137.571C136.324 4.3707 135.795 4.60455 135.795 5.07226C135.795 5.46315 136.179 5.77467 136.418 6.08619L141.109 11.1986C141.666 11.7781 142.347 11.8532 142.982 11.1269ZM27.4907 1.01565H31.6429V10.375H27.8082C27.4685 8.50412 26.2976 7.77609 25.2299 6.79459C23.3035 5.02446 19.1317 3.55049 15.623 3.55049C11.0944 3.55049 7.27254 4.95533 7.27254 7.02076C7.27254 12.7545 33.1715 8.19174 33.1715 19.0327C33.1715 24.687 27.6239 27.8458 17.6612 27.8458C14.2122 27.8458 8.99317 26.7755 5.91379 25.1402C4.9485 24.5829 4.53883 25.6677 4.35789 27.0273H0.100711V17.3556H3.95163C4.80085 19.8128 5.97098 20.3189 7.04722 21.2944C8.91464 23.0108 13.3596 24.2594 17.4358 24.2193C23.5818 24.1587 25.695 22.8153 25.695 20.8651C25.695 18.9158 23.6048 18.4472 16.87 17.3949L11.1516 16.4586C4.69843 15.4831 0 14.0407 0 8.8933C0 3.55049 5.94367 0.196298 15.3414 0.196298C19.3015 0.196298 22.6148 0.725463 25.7949 2.5229C26.6757 3.09559 27.5018 3.16387 27.4907 1.01565ZM108.524 16.6856L108.606 6.28335C108.606 4.91863 107.896 4.45092 105.867 4.45092H103.483V1.21451H118.65V4.45092H116.673C114.643 4.45092 113.932 4.91948 113.932 6.28335V27.2253L107.996 27.1784L88.7726 8.97439V22.1949C88.7726 23.5212 89.4827 24.0273 91.5115 24.0273H94.1504V27.2253H78.3994V24.0273H81.0093C83.0381 24.0273 83.7482 23.5203 83.7482 22.1949V6.28335C83.7482 4.91863 83.0381 4.45092 81.0093 4.45092H78.3994V1.21451H92.0176L108.524 16.6856ZM57.722 0C45.635 0 38.0688 5.34366 38.0688 13.922C38.0688 22.3468 45.53 27.6495 57.3533 27.6495C69.9115 27.6495 77.2164 22.4244 77.2164 13.4936C77.2173 5.46059 69.3345 0 57.722 0ZM57.4472 24.2577C50.7567 24.2577 46.9109 20.3966 46.9109 13.7274C46.9109 7.21536 50.924 3.35419 57.7817 3.35419C64.3604 3.35419 68.2062 7.29388 68.2062 14.0014C68.2062 20.5528 64.3041 24.2577 57.4472 24.2577Z" fill="#0B1124"/>
</svg>
