<svg width="120" height="24" viewBox="0 0 120 24" fill="none" xmlns="http://www.w3.org/2000/svg">
<path d="M13.2764 2.49811C12.891 1.83396 11.9319 1.83396 11.5465 2.49811L8.83245 7.17542C8.64208 7.50351 8.31303 7.7274 7.93796 7.78405L2.85165 8.55227C1.99737 8.6813 1.69771 9.75991 2.36301 10.3111L6.1521 13.4503C6.50285 13.7409 6.66777 14.1993 6.58256 14.6467L5.5914 19.8519C5.43471 20.6747 6.2985 21.314 7.03965 20.9238L11.8291 18.4019C12.1936 18.21 12.6293 18.21 12.9938 18.4019L17.7832 20.9238C18.5244 21.314 19.3882 20.6747 19.2315 19.8519L18.2403 14.6467C18.1551 14.1993 18.32 13.7409 18.6708 13.4503L22.4599 10.3111C23.1252 9.75991 22.8255 8.6813 21.9712 8.55227L16.8849 7.78405C16.5098 7.7274 16.1808 7.50351 15.9904 7.17542L13.2764 2.49811Z" fill="#FF6BC9"/>
<path d="M37.2764 2.49811C36.891 1.83396 35.9319 1.83396 35.5465 2.49811L32.8324 7.17542C32.6421 7.50351 32.313 7.7274 31.938 7.78405L26.8517 8.55227C25.9974 8.6813 25.6977 9.75991 26.363 10.3111L30.1521 13.4503C30.5028 13.7409 30.6678 14.1993 30.5826 14.6467L29.5914 19.8519C29.4347 20.6747 30.2985 21.314 31.0396 20.9238L35.8291 18.4019C36.1936 18.21 36.6293 18.21 36.9938 18.4019L41.7832 20.9238C42.5244 21.314 43.3882 20.6747 43.2315 19.8519L42.2403 14.6467C42.1551 14.1993 42.32 13.7409 42.6708 13.4503L46.4599 10.3111C47.1252 9.75991 46.8255 8.6813 45.9712 8.55227L40.8849 7.78405C40.5098 7.7274 40.1808 7.50351 39.9904 7.17542L37.2764 2.49811Z" fill="#FF6BC9"/>
<path d="M61.2764 2.49811C60.891 1.83396 59.9319 1.83396 59.5465 2.49811L56.8324 7.17542C56.6421 7.50351 56.313 7.7274 55.938 7.78405L50.8517 8.55227C49.9974 8.6813 49.6977 9.75991 50.363 10.3111L54.1521 13.4503C54.5028 13.7409 54.6678 14.1993 54.5826 14.6467L53.5914 19.8519C53.4347 20.6747 54.2985 21.314 55.0396 20.9238L59.8291 18.4019C60.1936 18.21 60.6293 18.21 60.9938 18.4019L65.7832 20.9238C66.5244 21.314 67.3882 20.6747 67.2315 19.8519L66.2403 14.6467C66.1551 14.1993 66.32 13.7409 66.6708 13.4503L70.4599 10.3111C71.1252 9.75991 70.8255 8.6813 69.9712 8.55227L64.8849 7.78405C64.5098 7.7274 64.1808 7.50351 63.9904 7.17542L61.2764 2.49811Z" fill="#FF6BC9"/>
<path d="M85.2764 2.49811C84.891 1.83396 83.9319 1.83396 83.5465 2.49811L80.8324 7.17542C80.6421 7.50351 80.313 7.7274 79.938 7.78405L74.8517 8.55227C73.9974 8.6813 73.6977 9.75991 74.363 10.3111L78.1521 13.4503C78.5028 13.7409 78.6678 14.1993 78.5826 14.6467L77.5914 19.8519C77.4347 20.6747 78.2985 21.314 79.0396 20.9238L83.8291 18.4019C84.1936 18.21 84.6293 18.21 84.9938 18.4019L89.7832 20.9238C90.5244 21.314 91.3882 20.6747 91.2315 19.8519L90.2403 14.6467C90.1551 14.1993 90.32 13.7409 90.6708 13.4503L94.4599 10.3111C95.1252 9.75991 94.8255 8.6813 93.9712 8.55227L88.8849 7.78405C88.5098 7.7274 88.1808 7.50351 87.9904 7.17542L85.2764 2.49811Z" fill="#FF6BC9"/>
<path d="M109.276 2.49811C108.891 1.83396 107.932 1.83396 107.547 2.49811L104.832 7.17542C104.642 7.50351 104.313 7.7274 103.938 7.78405L98.8517 8.55227C97.9974 8.6813 97.6977 9.75991 98.363 10.3111L102.152 13.4503C102.503 13.7409 102.668 14.1993 102.583 14.6467L101.591 19.8519C101.435 20.6747 102.299 21.314 103.04 20.9238L107.829 18.4019C108.194 18.21 108.629 18.21 108.994 18.4019L113.783 20.9238C114.524 21.314 115.388 20.6747 115.231 19.8519L114.24 14.6467C114.155 14.1993 114.32 13.7409 114.671 13.4503L118.46 10.3111C119.125 9.75991 118.826 8.6813 117.971 8.55227L112.885 7.78405C112.51 7.7274 112.181 7.50351 111.99 7.17542L109.276 2.49811Z" fill="#FF6BC9"/>
</svg>
