<svg width="32" height="32" viewBox="0 0 32 32" fill="none" xmlns="http://www.w3.org/2000/svg">
<circle cx="16.3333" cy="16.3333" r="13.3333" fill="#FF0000"/>
<path fill-rule="evenodd" clip-rule="evenodd" d="M24.2003 10.9187C24.4664 11.1848 24.6581 11.5159 24.7564 11.8791C25.3223 14.1571 25.1916 17.7549 24.7674 20.1209C24.6691 20.4841 24.4774 20.8152 24.2113 21.0813C23.9452 21.3474 23.6141 21.5391 23.2509 21.6374C21.9212 22 16.5696 22 16.5696 22C16.5696 22 11.2179 22 9.88827 21.6374C9.52506 21.5391 9.19393 21.3474 8.92786 21.0813C8.66179 20.8152 8.47007 20.4841 8.37179 20.1209C7.80256 17.8527 7.9586 14.2527 8.3608 11.8901C8.45908 11.5269 8.6508 11.1958 8.91687 10.9297C9.18294 10.6636 9.51407 10.4719 9.87728 10.3736C11.207 10.011 16.5586 10 16.5586 10C16.5586 10 21.9102 10 23.2399 10.3626C23.6031 10.4609 23.9343 10.6526 24.2003 10.9187ZM19.2949 16L14.8553 18.5714V13.4286L19.2949 16Z" fill="#FEFEFF"/>
</svg>
