<svg width="112" height="31" viewBox="0 0 112 31" fill="none" xmlns="http://www.w3.org/2000/svg">
<rect x="0.666016" width="110.714" height="31" rx="6" fill="#FEFEFF"/>
<g clip-path="url(#clip0_51716_1390)">
<path d="M72.1278 27.104C77.3536 27.104 81.5897 22.6887 81.5897 17.243C81.5897 11.7959 77.3536 7.3811 72.1278 7.3811C66.9021 7.3811 62.666 11.7964 62.666 17.2425C62.666 22.6887 66.9026 27.104 72.1278 27.104Z" fill="#FFCD00"/>
<path d="M66.0073 6.84141C67.0376 6.84141 67.8726 5.97095 67.8726 4.89727C67.8726 3.8231 67.0376 2.95264 66.0073 2.95264C64.977 2.95264 64.1416 3.82359 64.1416 4.89727C64.1416 5.97095 64.977 6.84141 66.0073 6.84141Z" fill="#FFF1B8"/>
<path d="M73.3455 18.6155C73.0492 18.8857 72.6719 19.024 72.2204 19.024C71.6277 19.024 71.169 18.8006 70.8507 18.3454C70.5323 17.8976 70.3767 17.2186 70.3767 16.3083V16.0076C70.3767 15.1047 70.5395 14.433 70.8578 13.9936C71.1762 13.5537 71.6277 13.3298 72.2128 13.3298C72.6719 13.3298 73.0492 13.4843 73.3455 13.7928C73.6419 14.1014 73.797 14.5029 73.8195 14.9812H75.5296C75.4999 14.032 75.1887 13.2683 74.5817 12.6818C73.9746 12.1031 73.1976 11.8098 72.2348 11.8098C71.102 11.8098 70.2139 12.2035 69.5551 12.9671C68.8959 13.7313 68.5703 14.7573 68.5703 16.0381V16.231C68.5703 17.5738 68.9035 18.6229 69.5623 19.3871C70.2211 20.1508 71.1169 20.5287 72.2424 20.5287C72.8081 20.5332 73.3666 20.3983 73.8712 20.1355C74.3744 19.8733 74.767 19.518 75.0633 19.0628C75.3461 18.627 75.5074 18.1199 75.5296 17.5965H73.8195C73.8138 17.7908 73.7687 17.9818 73.687 18.1572C73.6054 18.3325 73.4891 18.4885 73.3455 18.615V18.6155ZM68.9552 22.0723H75.4104V23.4151H68.9552V22.0718V22.0723Z" fill="#FEFEFF"/>
<path d="M49.7174 20.7939H47.9033V8.85742H49.7174V20.7939Z" fill="#0B1124"/>
<path fill-rule="evenodd" clip-rule="evenodd" d="M30.1895 8.85742V20.169H34.1579C35.3721 20.169 36.3124 19.8836 36.9635 19.3128C37.6151 18.742 37.9411 17.9316 37.9411 16.8667C37.9411 16.2261 37.7783 15.671 37.46 15.2154C37.1344 14.7602 36.6825 14.4438 36.0974 14.2819C36.6159 14.0507 37.008 13.7338 37.2747 13.3175C37.5414 12.9081 37.6745 12.4377 37.6745 11.9205C37.6745 10.9019 37.3561 10.1383 36.7121 9.62898C36.0677 9.11231 35.1351 8.85742 33.9061 8.85742H30.1895ZM33.9286 13.6181H32.0767V10.4394H33.9128C34.5572 10.4394 35.0379 10.5624 35.3419 10.8094C35.6455 11.0565 35.8011 11.4654 35.8011 12.0209C35.8011 12.5302 35.6383 12.9238 35.3051 13.2018C34.9718 13.4794 34.5127 13.6181 33.9276 13.6181H33.9286ZM32.0767 18.5796V15.0614H34.3212C35.476 15.0919 36.0534 15.6863 36.0534 16.8589C36.0534 17.3991 35.8906 17.8233 35.5574 18.1245C35.2241 18.4251 34.7655 18.5796 34.1733 18.5796H32.0772H32.0767ZM44.256 19.3817C44.3154 19.7448 44.3819 20.0071 44.4633 20.169H46.3071V20.0381C46.1069 19.5824 46.0035 18.9806 46.0035 18.2248V14.4359C45.9887 13.5409 45.7 12.8466 45.137 12.3525C44.5744 11.859 43.8271 11.612 42.8791 11.612C42.2572 11.612 41.6946 11.7202 41.191 11.9515C40.6801 12.1754 40.288 12.4918 39.9917 12.8928C39.703 13.2939 39.555 13.7259 39.555 14.1889H41.3686C41.3686 13.8573 41.4945 13.5871 41.7612 13.3711C42.0279 13.1551 42.3611 13.0473 42.7757 13.0473C43.2497 13.0473 43.6049 13.1782 43.8414 13.441C44.0712 13.6954 44.1895 14.0502 44.1895 14.4822V15.0304H43.0787C41.8943 15.0304 40.9765 15.2695 40.3397 15.7478C39.703 16.2261 39.3846 16.913 39.3846 17.8081C39.3846 18.5176 39.6436 19.1199 40.1545 19.5982C40.6653 20.0843 41.3322 20.3235 42.1389 20.3235C42.9753 20.3235 43.6786 20.0071 44.256 19.3822V19.3817ZM43.479 18.5412C43.1678 18.7184 42.8274 18.8109 42.4722 18.8109C42.0867 18.8109 41.776 18.7026 41.539 18.4871C41.3092 18.2706 41.191 17.9852 41.191 17.623C41.191 17.1753 41.3614 16.8357 41.7018 16.5887C42.035 16.3496 42.5387 16.2261 43.2123 16.2261H44.1895V17.8081C44.031 18.1212 43.7831 18.3771 43.479 18.5412ZM56.4128 19.3817C56.4722 19.7448 56.5387 20.0071 56.6201 20.169H58.471V20.0381C58.2714 19.5824 58.1675 18.9806 58.1675 18.2248V14.4359C58.1531 13.5409 57.8639 12.8466 57.3009 12.3525C56.7389 11.859 55.991 11.612 55.0431 11.612C54.4212 11.612 53.8586 11.7202 53.3554 11.9515C52.8446 12.1754 52.452 12.4918 52.1561 12.8928C51.8669 13.2939 51.719 13.7259 51.719 14.1889H53.5254C53.5254 13.8573 53.6513 13.5871 53.918 13.3711C54.1846 13.1551 54.5174 13.0473 54.932 13.0473C55.406 13.0473 55.7612 13.1782 55.9982 13.441C56.228 13.6954 56.3463 14.0502 56.3463 14.4822V15.0304H55.2355C54.0511 15.0304 53.1333 15.2695 52.4965 15.7478C51.8598 16.2261 51.5414 16.913 51.5414 17.8081C51.5414 18.5176 51.8004 19.1199 52.3112 19.5982C52.8221 20.0843 53.4885 20.3235 54.2952 20.3235C55.1321 20.3235 55.8354 20.0071 56.4128 19.3822V19.3817ZM55.643 18.5412C55.3318 18.7184 54.9918 18.8109 54.6361 18.8109C54.2435 18.8109 53.9323 18.7026 53.7107 18.4871C53.4809 18.2706 53.3626 17.9852 53.3626 17.623C53.3626 17.1753 53.5254 16.8357 53.8663 16.5887C54.1995 16.3496 54.7027 16.2261 55.3763 16.2261H56.3539V17.8081C56.1953 18.1213 55.9472 18.3772 55.643 18.5412Z" fill="#0B1124"/>
<path d="M61.423 11.9643L61.4752 12.9366C62.0746 12.1882 62.8521 11.8098 63.8216 11.8098C65.5021 11.8098 66.3543 12.8131 66.3835 14.8193V20.3747H64.5771V14.9275C64.5771 14.3946 64.4661 14.0015 64.2439 13.7387C64.0218 13.4843 63.6589 13.3529 63.1629 13.3529C62.4304 13.3529 61.8894 13.7003 61.5269 14.3872V20.3673H59.7129V11.9643H61.423Z" fill="#0B1124"/>
<path fill-rule="evenodd" clip-rule="evenodd" d="M77.0246 19.395C77.7355 20.1429 78.6682 20.5213 79.8158 20.5213C80.4899 20.5213 81.0893 20.3825 81.6298 20.1203C82.155 19.8539 82.6021 19.4491 82.9253 18.9472L81.9482 17.9749C81.4225 18.6771 80.7489 19.0244 79.9197 19.0244C79.3274 19.0244 78.8386 18.8158 78.446 18.4148C78.0539 18.0138 77.8318 17.4656 77.7801 16.7713H83.0512V16.0071C83.0512 14.6726 82.7549 13.6383 82.1555 12.9056C81.5556 12.1725 80.7043 11.8098 79.6085 11.8098C78.9128 11.8098 78.2909 11.987 77.7283 12.3575C77.1653 12.728 76.7287 13.2373 76.4175 13.9011C76.1063 14.5644 75.9512 15.3133 75.9512 16.1538V16.385C75.9512 17.6354 76.3141 18.6387 77.0246 19.395ZM78.3943 13.8622C78.7055 13.5074 79.1053 13.3219 79.6013 13.3219C80.1045 13.3219 80.497 13.4764 80.7786 13.8007C81.0596 14.1245 81.2224 14.6028 81.2597 15.2356V15.3748H77.8097C77.8911 14.7263 78.0908 14.2249 78.3943 13.8622Z" fill="#0B1124"/>
</g>
<defs>
<clipPath id="clip0_51716_1390">
<rect width="53.1429" height="23.619" fill="white" transform="translate(30.1895 2.95239)"/>
</clipPath>
</defs>
</svg>
