<svg width="83" height="21" viewBox="0 0 83 21" fill="none" xmlns="http://www.w3.org/2000/svg">
<path d="M0.671999 19.88C0.485299 19.88 0.326699 19.815 0.195999 19.684C0.0652991 19.553 0 19.395 0 19.208V0.979996C0 0.774696 0.0652991 0.606698 0.195999 0.475998C0.326699 0.345298 0.485299 0.279999 0.671999 0.279999H8.792C10.304 0.279999 11.536 0.513296 12.488 0.979996C13.44 1.428 14.14 2.0533 14.588 2.856C15.0547 3.6587 15.288 4.592 15.288 5.656C15.288 6.3653 15.1573 6.9907 14.896 7.532C14.6533 8.0547 14.3453 8.484 13.972 8.82C13.6173 9.156 13.2627 9.4173 12.908 9.604C13.636 9.94 14.28 10.5 14.84 11.284C15.4 12.068 15.68 13.0013 15.68 14.084C15.68 15.204 15.428 16.2027 14.924 17.08C14.42 17.957 13.6733 18.648 12.684 19.152C11.6947 19.637 10.472 19.88 9.016 19.88H0.671999ZM3.892 16.912H8.568C9.576 16.912 10.3413 16.6413 10.864 16.1C11.3867 15.54 11.648 14.868 11.648 14.084C11.648 13.2627 11.3773 12.5813 10.836 12.04C10.3133 11.4987 9.5573 11.228 8.568 11.228H3.892V16.912ZM3.892 8.31599H8.288C9.2773 8.31599 10.0147 8.0827 10.5 7.616C11.004 7.1307 11.256 6.5053 11.256 5.74C11.256 4.956 11.004 4.34 10.5 3.892C10.0147 3.444 9.2773 3.21999 8.288 3.21999H3.892V8.31599ZM24.7459 19.88C24.5592 19.88 24.4005 19.815 24.2699 19.684C24.1392 19.553 24.0739 19.395 24.0739 19.208V3.724H18.8939C18.7072 3.724 18.5485 3.6587 18.4179 3.528C18.2872 3.3973 18.2219 3.23869 18.2219 3.05199V0.979996C18.2219 0.774696 18.2872 0.606698 18.4179 0.475998C18.5485 0.345298 18.7072 0.279999 18.8939 0.279999H33.1739C33.3792 0.279999 33.5472 0.345298 33.6779 0.475998C33.8085 0.606698 33.8739 0.774696 33.8739 0.979996V3.05199C33.8739 3.23869 33.8085 3.3973 33.6779 3.528C33.5472 3.6587 33.3792 3.724 33.1739 3.724H28.0219V19.208C28.0219 19.395 27.9565 19.553 27.8259 19.684C27.6952 19.815 27.5272 19.88 27.3219 19.88H24.7459ZM40.9207 20.16C38.8487 20.16 37.206 19.563 35.9927 18.368C34.7793 17.1733 34.126 15.4747 34.0327 13.272C34.014 13.0853 34.0047 12.852 34.0047 12.572C34.0047 12.2733 34.014 12.04 34.0327 11.872C34.1073 10.4533 34.4247 9.24 34.9847 8.23199C35.5633 7.20529 36.3567 6.4213 37.3647 5.88C38.3727 5.32 39.558 5.04 40.9207 5.04C42.4327 5.04 43.702 5.3573 44.7287 5.992C45.7553 6.608 46.53 7.476 47.0527 8.596C47.5753 9.6973 47.8367 10.976 47.8367 12.432V13.02C47.8367 13.2067 47.7713 13.3653 47.6407 13.496C47.51 13.6267 47.342 13.692 47.1367 13.692H37.8407C37.8407 13.692 37.8407 13.72 37.8407 13.776C37.8407 13.832 37.8407 13.8787 37.8407 13.916C37.8593 14.5693 37.9807 15.176 38.2047 15.736C38.4473 16.2773 38.7927 16.716 39.2407 17.052C39.7073 17.388 40.258 17.556 40.8927 17.556C41.4153 17.556 41.854 17.4813 42.2087 17.332C42.5633 17.164 42.8527 16.9773 43.0767 16.772C43.3007 16.5667 43.4593 16.3987 43.5527 16.268C43.7207 16.044 43.8513 15.9133 43.9447 15.876C44.0567 15.82 44.2153 15.792 44.4207 15.792H46.8287C47.0153 15.792 47.1647 15.848 47.2767 15.96C47.4073 16.072 47.4633 16.212 47.4447 16.38C47.426 16.6787 47.2673 17.0427 46.9687 17.472C46.6887 17.901 46.278 18.321 45.7367 18.732C45.1953 19.143 44.514 19.488 43.6927 19.768C42.89 20.029 41.966 20.16 40.9207 20.16ZM37.8407 11.34H44.0287V11.256C44.0287 10.528 43.9073 9.8933 43.6647 9.352C43.422 8.792 43.0673 8.3627 42.6007 8.064C42.134 7.7467 41.574 7.588 40.9207 7.588C40.2673 7.588 39.7073 7.7467 39.2407 8.064C38.774 8.3627 38.4193 8.792 38.1767 9.352C37.9527 9.8933 37.8407 10.528 37.8407 11.256V11.34ZM57.9488 20.16C56.6048 20.16 55.4195 19.908 54.3928 19.404C53.3848 18.9 52.5915 18.172 52.0128 17.22C51.4528 16.2493 51.1448 15.0827 51.0888 13.72C51.0702 13.44 51.0608 13.076 51.0608 12.628C51.0608 12.1613 51.0702 11.7787 51.0888 11.48C51.1448 10.1173 51.4528 8.96 52.0128 8.008C52.5915 7.0373 53.3848 6.3 54.3928 5.796C55.4195 5.292 56.6048 5.04 57.9488 5.04C59.1435 5.04 60.1608 5.208 61.0008 5.544C61.8408 5.8613 62.5315 6.2813 63.0728 6.804C63.6142 7.308 64.0155 7.83999 64.2768 8.39999C64.5568 8.94129 64.7062 9.436 64.7248 9.884C64.7435 10.0893 64.6782 10.2573 64.5288 10.388C64.3982 10.5 64.2395 10.556 64.0528 10.556H61.5888C61.4022 10.556 61.2528 10.5093 61.1408 10.416C61.0475 10.3227 60.9542 10.1827 60.8608 9.99599C60.5808 9.24929 60.2075 8.72669 59.7408 8.42799C59.2928 8.11069 58.7142 7.952 58.0048 7.952C57.0715 7.952 56.3248 8.2507 55.7648 8.848C55.2235 9.4267 54.9342 10.3507 54.8968 11.62C54.8595 12.3293 54.8595 12.9827 54.8968 13.58C54.9342 14.868 55.2235 15.8013 55.7648 16.38C56.3248 16.9587 57.0715 17.248 58.0048 17.248C58.7328 17.248 59.3208 17.0987 59.7688 16.8C60.2168 16.4827 60.5808 15.9507 60.8608 15.204C60.9542 15.0173 61.0475 14.8773 61.1408 14.784C61.2528 14.6907 61.4022 14.644 61.5888 14.644H64.0528C64.2395 14.644 64.3982 14.7093 64.5288 14.84C64.6782 14.952 64.7435 15.1107 64.7248 15.316C64.7062 15.652 64.6128 16.0347 64.4448 16.464C64.2955 16.8747 64.0435 17.304 63.6888 17.752C63.3528 18.181 62.9235 18.583 62.4008 18.956C61.8782 19.311 61.2435 19.6 60.4968 19.824C59.7688 20.048 58.9195 20.16 57.9488 20.16ZM69.1849 19.88C68.9983 19.88 68.8396 19.815 68.7089 19.684C68.5783 19.553 68.5129 19.395 68.5129 19.208V0.671997C68.5129 0.485297 68.5783 0.326699 68.7089 0.195999C68.8396 0.0652991 68.9983 0 69.1849 0H71.6773C71.8823 0 72.0413 0.0652991 72.1533 0.195999C72.2833 0.326699 72.3493 0.485297 72.3493 0.671997V7.056C72.8533 6.4587 73.4693 5.9733 74.1973 5.6C74.9253 5.2267 75.8213 5.04 76.8853 5.04C78.0233 5.04 79.0133 5.3013 79.8533 5.824C80.7113 6.328 81.3743 7.0467 81.8413 7.98C82.3073 8.9133 82.5413 10.0333 82.5413 11.34V19.208C82.5413 19.395 82.4753 19.553 82.3453 19.684C82.2143 19.815 82.0553 19.88 81.8693 19.88H79.3493C79.1623 19.88 79.0033 19.815 78.8733 19.684C78.7423 19.553 78.6773 19.395 78.6773 19.208V11.508C78.6773 10.4253 78.4063 9.576 77.8653 8.96C77.3423 8.344 76.5773 8.036 75.5693 8.036C74.5983 8.036 73.8143 8.344 73.2173 8.96C72.6383 9.576 72.3493 10.4253 72.3493 11.508V19.208C72.3493 19.395 72.2833 19.553 72.1533 19.684C72.0413 19.815 71.8823 19.88 71.6773 19.88H69.1849Z" fill="#FEFEFF"/>
</svg>
