<svg width="32" height="32" viewBox="0 0 32 32" fill="none" xmlns="http://www.w3.org/2000/svg">
<circle cx="16.3333" cy="16.3333" r="13.3333" fill="#1DA1F2"/>
<path fill-rule="evenodd" clip-rule="evenodd" d="M25 11.5391C24.4118 11.8004 23.7787 11.9764 23.1148 12.0559C23.7926 11.6495 24.3131 11.0063 24.5579 10.24C23.9243 10.6165 23.2209 10.889 22.4738 11.0367C21.8749 10.3989 21.0211 10 20.0777 10C18.265 10 16.7952 11.4698 16.7952 13.2824C16.7952 13.5395 16.8245 13.7901 16.8805 14.0307C14.1522 13.8941 11.7337 12.587 10.1146 10.601C9.83194 11.0858 9.67036 11.6495 9.67036 12.2511C9.67036 13.3896 10.249 14.3944 11.1305 14.9831C10.5919 14.9661 10.0863 14.8183 9.64316 14.5725V14.6136C9.64316 16.2044 10.7753 17.5307 12.276 17.8331C12.0009 17.9077 11.7108 17.9483 11.4116 17.9483C11.1999 17.9483 10.994 17.9275 10.7935 17.8891C11.2111 19.193 12.4238 20.1423 13.8599 20.1689C12.7368 21.0489 11.3214 21.5742 9.78341 21.5742C9.51783 21.5742 9.25652 21.5587 9 21.5278C10.4527 22.4589 12.1779 23.0029 14.0317 23.0029C20.0691 23.0029 23.3708 18.0011 23.3708 13.6638C23.3708 13.5214 23.3681 13.3795 23.3612 13.2393C24.0033 12.7753 24.56 12.1972 25 11.5391Z" fill="#FEFEFF"/>
</svg>
